<?xml version="1.0" standalone="no"?>
<!DOCTYPE svg PUBLIC "-//W3C//DTD SVG 20010904//EN"
 "http://www.w3.org/TR/2001/REC-SVG-20010904/DTD/svg10.dtd">
<svg version="1.0" xmlns="http://www.w3.org/2000/svg"
 width="249.000000pt" height="150.000000pt" viewBox="0 0 249.000000 150.000000"
 preserveAspectRatio="xMidYMid meet">

<g transform="translate(0.000000,150.000000) scale(0.100000,-0.100000)"
fill="#000000" stroke="none">
<path d="M506 1074 c-111 -39 -177 -98 -230 -207 -20 -40 -36 -63 -39 -55 -4
7 -5 -9 -4 -36 2 -61 21 -70 44 -22 12 26 19 33 26 24 5 -8 6 -5 2 9 -8 30 23
92 37 72 7 -10 8 -8 3 8 -7 24 13 42 25 23 5 -7 27 -64 50 -127 24 -63 47
-112 53 -110 6 2 19 26 30 55 11 29 23 52 26 52 4 0 18 -25 30 -55 21 -49 41
-72 41 -45 0 6 3 10 8 10 4 0 6 -45 6 -100 -2 -94 -1 -100 18 -100 16 0 18 3
9 14 -8 9 -11 47 -9 107 l3 94 44 -73 c24 -39 46 -72 50 -72 3 0 24 32 46 70
22 38 44 70 48 70 5 0 7 -47 5 -105 -3 -99 -2 -105 17 -105 19 0 20 7 20 117
0 65 4 126 9 136 6 13 4 17 -12 17 -15 0 -32 -19 -58 -62 -66 -111 -55 -109
-113 -18 -28 44 -51 88 -51 98 1 9 14 50 29 90 22 55 26 72 15 72 -8 0 -14 -9
-14 -20 0 -27 -46 -152 -60 -160 -6 -4 -8 -15 -4 -26 15 -39 -11 -1 -32 48
-20 48 -21 55 -8 92 8 21 19 45 25 53 9 10 7 13 -10 13 -13 0 -19 -4 -16 -11
4 -5 1 -24 -6 -41 l-12 -30 -13 24 c-7 12 -13 31 -14 41 0 12 -8 17 -28 17
l-29 0 29 -56 c32 -66 34 -86 9 -133 l-18 -34 -32 84 c-18 46 -35 96 -38 111
-3 15 -14 29 -27 32 -19 6 -18 10 24 46 75 67 122 85 220 84 116 0 185 -28
261 -103 176 -177 127 -482 -100 -611 -62 -36 -81 -57 -36 -40 14 5 30 9 34 7
5 -1 9 2 10 6 0 12 69 57 86 57 21 0 72 72 111 157 l33 73 -9 103 c-18 204
-103 321 -276 377 -81 26 -152 24 -238 -6z"/>
<path d="M1313 896 c-12 -15 -35 -27 -59 -32 -106 -19 -151 -61 -119 -110 8
-13 23 -24 32 -24 14 0 13 3 -5 16 -44 30 -20 73 53 93 76 21 76 20 48 -66
-33 -105 -35 -160 -6 -180 21 -14 25 -13 58 20 26 26 35 31 35 18 0 -23 20
-41 46 -41 36 0 67 49 107 166 40 115 50 133 82 152 19 12 19 12 -5 10 -29 -3
-61 -62 -106 -192 -30 -88 -62 -133 -87 -123 -25 9 -21 59 12 170 16 54 26 97
22 97 -4 0 -24 -46 -44 -103 -42 -115 -82 -175 -112 -164 -22 9 -18 59 15 170
20 66 28 79 57 97 35 20 40 42 11 48 -9 2 -24 -8 -35 -22z m32 -6 c-3 -5 -11
-10 -16 -10 -6 0 -7 5 -4 10 3 6 11 10 16 10 6 0 7 -4 4 -10z"/>
<path d="M2060 884 c-68 -42 -104 -44 -124 -6 -14 25 -15 25 -16 5 0 -23 34
-53 61 -53 8 0 38 11 64 25 27 13 51 23 52 21 9 -9 -38 -109 -76 -161 -41 -59
-55 -115 -28 -115 24 0 44 32 71 115 31 94 94 178 130 173 33 -5 31 -46 -8
-169 -40 -122 -40 -123 -26 -114 5 3 26 57 46 120 28 90 42 120 66 140 36 30
64 32 78 5 8 -16 1 -48 -35 -157 -25 -75 -45 -144 -45 -153 0 -20 20 -40 40
-40 13 1 12 3 -2 14 -26 19 -23 44 22 173 42 122 48 161 28 181 -19 19 -70 14
-95 -10 -13 -12 -23 -17 -23 -10 0 15 -29 42 -45 42 -8 0 -31 -15 -51 -32 -39
-34 -40 -32 -17 30 8 18 -7 13 -67 -24z m-34 -228 c-8 -20 -20 -36 -25 -36
-15 0 -14 7 11 52 26 46 36 36 14 -16z"/>
<path d="M1815 848 c-2 -7 -22 -62 -45 -122 -22 -60 -40 -113 -40 -118 0 -23
19 7 39 62 27 74 61 116 85 107 19 -8 19 -11 -8 -99 -27 -86 28 -107 73 -27
30 53 21 60 -13 9 -26 -39 -56 -53 -56 -26 0 7 7 33 15 56 8 23 15 53 15 66 0
29 -29 46 -54 32 -16 -9 -18 -8 -13 7 13 32 19 65 13 65 -4 0 -9 -6 -11 -12z"/>
<path d="M196 821 c-13 -14 -16 -29 -11 -57 l6 -39 -18 28 c-17 25 -33 36 -33
20 0 -9 51 -83 58 -83 3 0 2 25 -1 56 -5 46 -3 58 14 75 10 10 15 19 11 19 -5
0 -17 -9 -26 -19z"/>
<path d="M1570 830 c0 -5 7 -10 15 -10 8 0 15 5 15 10 0 6 -7 10 -15 10 -8 0
-15 -4 -15 -10z"/>
<path d="M1676 808 c-3 -7 -7 -28 -10 -47 -5 -26 -3 -32 8 -28 19 7 40 -45 32
-78 -7 -28 -49 -44 -75 -28 -23 14 -25 48 -5 68 17 17 19 16 35 -3 19 -25 33
-18 18 9 -5 11 -21 19 -34 19 -19 0 -32 -12 -56 -50 -31 -51 -59 -65 -59 -32
0 11 9 45 20 77 22 64 25 85 11 70 -16 -18 -54 -144 -47 -160 10 -26 36 -29
58 -8 20 20 21 20 39 2 26 -26 65 -24 94 6 29 28 30 41 9 94 -12 30 -13 44 -5
60 6 11 11 24 11 30 0 15 -40 14 -44 -1z m21 -20 c-3 -8 -6 -5 -6 6 -1 11 2
17 5 13 3 -3 4 -12 1 -19z"/>
<path d="M2394 755 c-18 -24 -29 -52 -32 -85 -4 -46 -3 -50 23 -62 23 -10 32
-9 63 7 25 14 38 28 40 45 l2 25 -15 -27 c-27 -49 -96 -48 -103 0 -3 16 5 25
34 37 51 21 74 43 74 72 0 19 -5 23 -29 23 -23 0 -37 -9 -57 -35z m72 13 c8
-13 -39 -58 -62 -58 -19 0 -18 13 7 44 22 28 43 33 55 14z"/>
<path d="M110 704 c0 -19 4 -33 8 -30 5 3 8 -5 7 -17 -1 -12 3 -26 9 -30 6 -4
-1 -5 -16 -1 -18 4 -28 2 -28 -5 0 -6 17 -11 39 -11 31 0 44 -6 60 -26 l20
-25 -2 28 c-2 26 1 28 38 33 l40 5 -24 17 -23 16 28 15 28 14 -25 8 c-13 4
-27 13 -31 19 -11 16 -18 3 -21 -37 -4 -44 -14 -57 -24 -31 -4 10 -13 25 -20
32 -11 11 -13 11 -13 0 -1 -7 -10 4 -21 25 -11 20 -22 37 -24 37 -3 0 -5 -16
-5 -36z"/>
<path d="M322 692 c-11 -25 -11 -25 4 -10 9 9 15 21 13 27 -2 6 -10 -2 -17
-17z"/>
<path d="M293 607 c-17 -18 -33 -40 -37 -48 -3 -8 -4 -2 -1 14 3 16 1 27 -6
27 -8 0 -9 -14 -5 -45 6 -36 4 -48 -12 -65 -19 -20 -19 -20 -35 20 -9 24 -26
44 -41 51 -31 15 -42 7 -27 -18 6 -10 11 -14 11 -9 0 12 40 -24 40 -37 0 -6
-10 -2 -22 9 l-23 19 20 -24 c11 -13 20 -33 20 -45 0 -17 6 -21 33 -21 27 0
32 3 28 18 -2 9 0 17 5 17 5 0 9 -5 9 -11 0 -13 52 -79 63 -79 4 0 -3 15 -17
33 -32 42 -33 52 -3 32 13 -8 27 -12 32 -8 4 5 6 1 2 -8 -3 -9 0 -22 6 -28 9
-9 8 -14 -3 -21 -24 -15 -39 -12 -64 15 -20 21 -25 23 -35 11 -10 -12 -8 -17
8 -26 12 -6 21 -8 21 -5 0 3 11 -6 24 -22 20 -24 26 -25 40 -14 14 11 16 11
16 -2 0 -8 7 -17 15 -21 22 -8 45 3 38 20 -3 8 -1 14 5 14 16 0 22 -26 9 -40
-9 -10 -9 -11 1 -6 6 4 12 3 12 -3 0 -6 -9 -15 -21 -21 -11 -7 -18 -14 -15
-17 3 -3 12 0 21 7 8 7 15 9 16 4 0 -5 5 2 11 16 10 23 11 23 16 5 3 -13 -6
-29 -29 -48 -31 -26 -32 -28 -9 -22 14 4 35 19 47 34 12 14 22 21 23 15 0 -6
-6 -17 -14 -23 -9 -8 -12 -26 -9 -59 7 -63 19 -74 15 -12 -3 39 0 52 18 70 28
28 38 18 16 -15 -17 -25 -16 -25 3 -13 11 7 22 19 25 28 2 8 4 2 5 -13 1 -32
-14 -66 -38 -84 -9 -7 -11 -13 -6 -13 18 0 65 61 65 85 0 13 6 25 13 28 7 2 0
15 -20 34 -18 17 -33 34 -33 37 0 12 17 6 38 -14 12 -12 23 -16 27 -10 4 6 11
8 16 5 13 -9 11 -53 -3 -58 -7 -2 -9 -8 -5 -13 5 -5 13 -1 18 9 6 9 20 17 32
18 20 1 20 2 -3 8 -24 7 -24 7 -5 20 17 10 17 12 2 7 -14 -5 -17 -2 -12 13 3
11 -1 24 -12 32 -11 9 -14 10 -9 2 4 -8 2 -13 -4 -13 -7 0 -14 9 -17 20 -6 23
-15 24 -97 10 -49 -8 -63 -7 -76 5 -11 10 -20 11 -26 5 -7 -7 -16 2 -29 29
-22 49 -50 76 -79 76 -12 0 -21 6 -21 15 0 11 9 14 39 12 29 -3 37 0 34 10 -3
7 -14 14 -26 16 -18 3 -20 8 -16 35 4 18 17 42 31 55 13 12 20 22 15 22 -5 0
-22 -15 -39 -33z m292 -278 c12 -19 -3 -21 -29 -4 -29 19 -26 41 4 25 10 -6
22 -15 25 -21z m-85 8 c0 -2 -9 -12 -20 -22 -19 -18 -20 -17 -20 3 0 15 6 22
20 22 11 0 20 -2 20 -3z"/>
<path d="M319 583 c-13 -16 -12 -17 4 -4 9 7 17 15 17 17 0 8 -8 3 -21 -13z"/>
<path d="M85 449 c-4 -6 -4 -13 -1 -16 3 -4 6 -1 6 5 0 7 11 9 29 6 16 -4 32
-1 35 5 5 7 -5 11 -28 11 -19 0 -38 -5 -41 -11z"/>
<path d="M345 298 c-10 -26 -2 -43 12 -26 7 8 8 19 3 28 -8 12 -10 12 -15 -2z"/>
<path d="M683 273 c9 -2 23 -2 30 0 6 3 -1 5 -18 5 -16 0 -22 -2 -12 -5z"/>
<path d="M320 215 c0 -8 4 -15 10 -15 5 0 7 7 4 15 -4 8 -8 15 -10 15 -2 0 -4
-7 -4 -15z"/>
</g>
</svg>
